<svg xmlns="http://www.w3.org/2000/svg" width="118" height="124" viewBox="0 0 118 124" version="1.1"><path d="M 39.500 4.118 C 35.650 5.205, 27.438 7.479, 21.250 9.172 L 10 12.249 10 61.486 L 10 110.723 25.195 114.956 C 33.552 117.284, 41.877 119.430, 43.695 119.725 L 47 120.262 47 61.131 C 47 28.609, 46.888 2.032, 46.750 2.071 C 46.612 2.110, 43.350 3.031, 39.500 4.118 M 53 14 C 53 15.905, 53.667 16, 67 16 L 81 16 81 33 C 81 49.333, 81.078 50, 83 50 C 84.930 50, 85 49.333, 85 31 L 85 12 69 12 C 53.667 12, 53 12.083, 53 14 M 92 50.965 L 92 54.930 81.750 55.215 L 71.500 55.500 71.500 61.500 L 71.500 67.500 81.750 67.785 L 92 68.070 92 72.035 C 92 74.216, 92.273 76, 92.607 76 C 93.490 76, 111.794 63.143, 112.471 62.047 C 112.978 61.227, 94.221 47, 92.632 47 C 92.284 47, 92 48.784, 92 50.965 M 81 90 L 81 107 67 107 C 53.667 107, 53 107.095, 53 109 C 53 110.917, 53.667 111, 69 111 L 85 111 85 92 C 85 73.667, 84.930 73, 83 73 C 81.078 73, 81 73.667, 81 90" stroke="none" fill="#010101" fill-rule="evenodd"/></svg>