<svg width="726" height="234" xmlns="http://www.w3.org/2000/svg" version="1.1">

 <g>
  <title>Layer 1</title>
  <path stroke="null" id="svg_1" fill-rule="evenodd" fill="#939393" d="m381.9431,9.27758c-4.68793,4.66281 -9.18834,8.47848 -9.99974,8.47848c-0.81141,0 -5.5484,-1.36701 -10.52724,-3.03836c-4.97884,-1.67235 -9.38462,-2.84977 -9.7912,-2.61828c-0.70976,0.40312 5.49407,2.62127 15.56216,5.56385c3.86776,1.13053 5.26275,1.15348 7.44811,0.12074c2.19412,-1.03674 2.66555,-1.01877 2.56565,0.09978c-0.25411,2.81585 -2.73214,5.26949 -4.07455,4.03219c-1.33891,-1.23231 -15.08023,-5.55487 -15.08023,-4.74264c0,0.25045 3.10718,1.44983 6.90659,2.66518c9.61595,3.07728 24.63834,17.8989 24.63834,24.3089c0,7.42777 -1.61931,8.24798 -6.62619,3.35966c-5.54314,-5.41517 -9.03236,-7.72413 -13.50824,-8.94446c-2.03815,-0.55579 -1.51941,-0.07184 1.232,1.14749c2.61472,1.15847 7.3342,4.77856 10.48518,8.04243c3.15274,3.26487 6.53331,5.78536 7.51295,5.60077c0.97965,-0.1836 2.01011,-3.50734 2.29226,-7.38487c0.4942,-6.8231 0.25411,-7.29107 -7.44811,-14.5143c-4.37773,-4.10603 -7.94231,-7.85684 -7.92128,-8.33679c0.04732,-1.03873 6.87679,3.77475 6.93287,4.88633c0.02103,0.42208 2.20639,2.66717 4.85617,4.9891c3.87827,3.39758 4.98936,5.73248 5.69561,11.96985c0.48369,4.26169 1.65611,7.85384 2.60596,7.98256c2.33608,0.31631 13.16825,-9.24181 13.16825,-11.61962c0,-1.04372 -2.48329,0.84416 -5.52036,4.19583c-3.03532,3.35168 -6.18982,5.8582 -7.00998,5.56983c-0.81842,-0.28937 -1.48962,-3.38261 -1.48962,-6.87598c0,-5.86219 -0.69048,-7.00769 -8.97278,-14.89846l-8.97278,-8.54733l7.29915,-6.99472c4.01322,-3.8476 7.62161,-6.99472 8.01767,-6.99472c0.39606,0 3.9992,3.14313 8.00715,6.98474c4.00971,3.84161 7.51996,6.98474 7.80036,6.98474c0.28215,0 0.05608,-1.00979 -0.50297,-2.2451c-0.91305,-2.01659 -0.71151,-2.10341 1.97682,-0.84715c2.50081,1.16845 3.69952,1.18142 7.31141,0.08182c2.37463,-0.72442 4.78607,-1.04971 5.35913,-0.72342c0.57307,0.32629 -1.39674,1.31114 -4.37773,2.18922c-4.47938,1.31912 -5.37491,2.15429 -5.1576,4.81349c0.25411,3.12617 0.2839,3.13815 1.00593,0.39613c0.50647,-1.9238 2.69534,-3.4774 6.8803,-4.88333c4.14641,-1.39296 5.44325,-2.30696 3.99744,-2.81585c-1.4423,-0.50689 -0.28916,-1.29916 3.53303,-2.4247c3.12295,-0.91899 5.30481,-1.88289 4.84916,-2.14132c-0.4539,-0.25943 -4.89998,0.89604 -9.87882,2.56839c-4.97884,1.67135 -9.71584,3.03836 -10.52724,3.03836c-0.81141,0 -5.31182,-3.81567 -9.99974,-8.47848c-4.68793,-4.66281 -9.31276,-8.47748 -10.27664,-8.47748c-0.96387,0 -5.58871,3.81467 -10.27664,8.47748m2.97924,-0.75136c-7.74253,7.75805 -8.84309,9.16099 -5.99529,7.6433c1.1216,-0.59769 3.90106,-3.0673 6.17404,-5.48801c2.40267,-2.55741 5.38367,-4.40039 7.11864,-4.40039c1.73497,0 4.71597,1.84297 7.11864,4.40039c3.76787,4.01224 9.13576,7.97258 7.55852,5.57782c-1.12335,-1.70528 -14.07079,-14.4684 -14.67715,-14.4684c-0.31545,0 -3.59963,3.03038 -7.29739,6.73529m-46.15373,10.72657l0,10.47711l-19.27746,0c-18.95324,0 -21.8729,0.52485 -16.64871,2.99346c1.44581,0.68351 2.62874,1.61248 2.62874,2.06449c0,0.45201 2.76018,3.50335 6.13374,6.78119c3.37355,3.27684 6.13374,6.39004 6.13374,6.91689c0,0.52785 -6.7033,3.10123 -14.89622,5.71951c-8.19292,2.61828 -14.87343,5.25452 -14.84715,5.8582c0.02629,0.60368 6.76113,3.27086 14.96456,5.92705c17.1692,5.56085 16.91509,4.73166 4.98235,16.22356c-5.61675,5.40819 -7.09586,7.58543 -5.4082,7.95462c1.27757,0.27939 9.75615,0.35822 18.84108,0.17562l16.51727,-0.33128l-17.08684,-0.20655c-9.39688,-0.11475 -17.08684,-0.55678 -17.08684,-0.98285c0,-0.42707 1.06902,-1.66237 2.37463,-2.74401c6.11972,-5.07392 13.57659,-13.735 12.80724,-14.87551c-0.46967,-0.69847 -7.3342,-3.4325 -15.25197,-6.07573c-13.08238,-4.36646 -14.10584,-4.92624 -11.21072,-6.1326c4.32341,-1.80007 5.85158,-1.66736 4.89122,0.42308c-0.53977,1.17643 0.98666,2.35086 4.6669,3.58916c3.00904,1.01179 5.88313,1.6045 6.38785,1.31712c0.50472,-0.28737 -1.52117,-1.24029 -4.50216,-2.11837c-2.981,-0.87808 -5.41521,-1.9208 -5.4082,-2.31893c0.00526,-0.39713 5.4415,-2.40574 12.07995,-4.46425c11.85388,-3.67597 12.40417,-3.74183 31.19793,-3.74183c18.67635,0 19.36508,0.08082 29.1037,3.41953c5.48531,1.88089 9.95768,3.1152 9.9384,2.74401c-0.01928,-0.37119 -4.41804,-2.13434 -9.77718,-3.91844c-9.49152,-3.1591 -10.27839,-3.24292 -30.28488,-3.24292c-11.29659,0 -21.28757,0.39314 -22.20412,0.87409c-2.981,1.56658 -18.7114,6.21642 -19.50353,5.76541c-0.4241,-0.24047 3.67323,-1.88588 9.10597,-3.65601c11.46483,-3.73484 12.82652,-5.05396 8.81505,-8.54034c-1.6123,-1.40094 -2.66379,-3.00643 -2.33432,-3.56821c0.32947,-0.56177 2.55163,0.70047 4.93853,2.80487l4.33918,3.82564l19.27045,0.49891c17.92453,0.46399 19.97845,0.7334 29.42616,3.86256c5.5852,1.84996 10.56755,3.13016 11.07052,2.84379c1.05325,-0.60069 -7.46914,-10.50705 -10.46415,-12.16143c-1.10057,-0.60867 -8.31034,-3.30977 -16.02132,-6.00189c-13.68875,-4.77856 -14.40201,-4.90429 -30.22004,-5.29643c-18.13308,-0.45002 -20.7443,0.44603 -15.24146,5.22858c1.65085,1.43387 2.59019,2.84079 2.08722,3.12617c-0.75007,0.42806 -10.07685,-8.04443 -10.07685,-9.154c0,-0.18559 8.08251,-0.46598 17.96308,-0.62264l17.96308,-0.28438l0.49946,-10.22766c0.27514,-5.62571 0.91831,-10.22766 1.43004,-10.22766c0.51173,0 2.65153,0.47396 4.75803,1.0527c3.69777,1.01678 3.71179,0.99982 0.42586,-0.49891c-7.06606,-3.22296 -7.98963,-2.19221 -7.98963,8.9255m98.91263,-8.9255c-3.28593,1.49873 -3.27191,1.51569 0.42586,0.49891c2.1065,-0.57874 4.2463,-1.0527 4.75803,-1.0527c0.51173,0 1.15489,4.60195 1.43004,10.22766l0.49946,10.22766l17.96308,0.28438c9.87882,0.15666 17.95783,0.60568 17.95082,0.99782c-0.00526,0.39214 -1.64209,2.0605 -3.63818,3.7069c-3.13697,2.59034 -3.46468,2.67416 -2.42896,0.62364c1.62632,-3.22096 -1.34942,-4.08508 -14.0743,-4.08707c-15.10126,-0.002 -18.08751,0.69748 -22.10774,5.18467c-1.95053,2.17824 -3.99394,3.7059 -4.53896,3.39558c-0.54503,-0.31032 0.36101,-1.7402 2.01362,-3.17706c1.65436,-1.43586 2.61998,-2.83181 2.14681,-3.10123c-0.47317,-0.26941 -4.13764,2.70609 -8.14385,6.61256c-7.30791,7.12344 -19.29849,12.94373 -26.76412,12.98963c-1.68765,0.00998 -3.06687,0.46798 -3.06687,1.01678c0,1.53964 1.45983,1.26224 13.4136,-2.54344c6.11621,-1.94775 11.12134,-3.1591 11.12134,-2.69212c0,0.46698 -4.72298,2.39676 -10.4957,4.28963c-5.77272,1.89187 -10.50446,3.74482 -10.51498,4.11601c-0.01928,0.65557 17.21126,-4.9442 21.50488,-6.98873c1.17417,-0.55978 3.66096,-2.51052 5.52737,-4.33653c2.83554,-2.77394 2.90739,-3.09424 0.43812,-1.95074c-3.41912,1.58554 -3.77137,0.86611 -1.0147,-2.06848c1.37746,-1.4648 2.32381,-1.71226 3.25789,-0.85214c0.86398,0.79526 2.93017,-0.35722 6.01807,-3.35767c4.21651,-4.09605 5.37841,-4.576 11.20195,-4.62689c3.57334,-0.03193 9.80697,-0.25345 13.84998,-0.49292c4.04476,-0.23848 7.73552,-0.08082 8.20519,0.35123c1.5089,1.38996 -13.6537,15.03216 -18.18565,16.36126c-9.77542,2.86873 -15.88112,5.06194 -15.19064,5.45608c0.40307,0.2295 5.50809,-1.17743 11.34566,-3.12517c8.34539,-2.78492 11.80131,-4.72468 16.17904,-9.08116c3.06161,-3.04635 5.91467,-5.34233 6.33703,-5.10086c0.4241,0.24147 -1.2986,2.54843 -3.8257,5.1278c-5.0577,5.15674 -4.80534,6.84505 1.26705,8.48447l4.04126,1.09261l-3.94312,-1.6474c-2.16959,-0.90602 -3.94312,-2.08644 -3.94312,-2.62227c0,-0.53583 3.94312,-4.78854 8.76248,-9.45135c4.81936,-4.66182 8.76248,-8.65909 8.76248,-8.8816c0,-0.22251 -8.67486,-0.40512 -19.27746,-0.40512l-19.27746,0l0,-10.47711c0,-11.11771 -0.92357,-12.14846 -7.98963,-8.9255m-94.23872,3.10522c-1.58776,0.90403 -1.4388,15.53606 0.17174,16.8462c1.77878,1.44684 19.89609,7.64829 20.81615,7.12444c0.41008,-0.23349 -3.81518,-1.96371 -9.39163,-3.8446l-10.13644,-3.42153l-0.50822,-8.18612c-0.54853,-8.81774 0.02103,-9.28572 8.01767,-6.57065l4.75803,1.61447l-4.38124,-2.09143c-4.54597,-2.17026 -7.34471,-2.6113 -9.34606,-1.47079m94.9625,0.12972c1.78404,0.71244 2.21866,3.20101 1.7525,10.00614c-0.34174,4.98112 0.0035,8.70199 0.76584,8.26694c0.76234,-0.43505 1.15665,-4.75461 0.87625,-9.60003c-0.39431,-6.81112 -1.10582,-8.90056 -3.13872,-9.21387c-2.12403,-0.32828 -2.1731,-0.22451 -0.25586,0.54082m-7.73376,1.75417c-3.26665,1.49074 -3.24562,1.5087 0.54152,0.46399c2.16959,-0.59869 3.94312,-1.29717 3.94312,-1.55161c0,-0.76333 -0.90955,-0.54281 -4.48464,1.08762m-118.74037,18.10445c-0.55905,0.51388 2.14155,3.9354 5.99879,7.60239l7.01349,6.66744l17.72474,0c16.5383,0 18.35915,0.20455 27.24255,3.05932c5.23646,1.68233 9.95418,2.81086 10.48694,2.50852c0.53101,-0.30334 -1.32313,-2.6552 -4.12012,-5.22658c-3.95013,-3.63007 -8.41724,-5.79434 -19.98371,-9.68185c-13.95162,-4.68876 -15.797,-5.034 -29.12298,-5.43513c-7.84768,-0.23549 -14.68066,-0.00898 -15.23971,0.50589m100.74924,4.05614c-0.28741,3.9813 -1.9996,6.62553 -6.61217,10.21369c-2.20289,1.71326 -4.43907,4.9891 -3.40685,4.9891c0.38029,0 3.16326,-2.45763 6.18105,-5.46207c4.36722,-4.34651 5.35212,-6.33516 4.81586,-9.72875l-0.67296,-4.26668l-0.30493,4.25471m13.1297,8.88359c-0.64317,0.3652 -1.16891,1.12853 -1.16891,1.69629c0,0.62464 0.81666,0.56576 2.0732,-0.14967c1.14087,-0.64958 1.66662,-1.41291 1.16891,-1.69629c-0.49771,-0.28338 -1.43179,-0.21653 -2.0732,0.14967m23.80415,7.88877c-6.02333,1.94475 -10.9531,3.77176 -10.9531,4.06213c0,0.28937 5.15234,-1.11357 11.44906,-3.11819l11.44906,-3.64604l11.33339,3.60812c6.23363,1.98466 11.33339,3.38461 11.33339,3.11021c0,-0.48893 -21.55921,-7.59641 -22.95069,-7.56647c-0.38905,0.00898 -5.63603,1.60649 -11.66111,3.55024m25.84932,-1.1894c0,0.75036 12.68281,4.70472 13.53453,4.21978c0.4539,-0.25844 -2.40618,-1.40792 -6.35455,-2.55542c-3.94837,-1.1465 -7.17998,-1.89586 -7.17998,-1.66436m-43.03955,4.07809c-2.47452,1.06567 -2.70936,1.47378 -0.86048,1.49673c1.60353,0.01996 1.92775,0.38117 0.87625,0.97886c-0.9148,0.52086 -7.18523,1.10658 -13.93234,1.30116l-12.26747,0.35423l12.37087,0.19557c8.60826,0.1357 13.40484,-0.24946 15.77246,-1.26923c2.27649,-0.98086 2.60596,-1.47578 0.99717,-1.49673c-1.94001,-0.02594 -1.98383,-0.3223 -0.22432,-1.52866c2.7707,-1.90085 1.63858,-1.91382 -2.73214,-0.03193m-91.50483,5.41218c-6.04611,2.09642 -11.56647,4.17887 -12.26747,4.6259c-1.61405,1.03075 22.67905,-6.37907 24.92575,-7.60239c3.76086,-2.04853 -2.23969,-0.63761 -12.65828,2.9765m145.1978,-2.30397c0.08412,1.16246 0.49946,1.39894 1.05851,0.60368c0.50647,-0.72043 0.44338,-1.58155 -0.13845,-1.91282c-0.58183,-0.33128 -0.99542,0.25744 -0.92006,1.30914m-119.72527,1.12155c2.18011,0.23848 5.3346,0.2295 7.00998,-0.01996c1.67539,-0.24946 -0.10865,-0.44503 -3.96415,-0.43405c-3.85549,0.01098 -5.22594,0.21553 -3.04584,0.45401m-28.69011,5.30741c-12.65653,4.33852 -15.00312,5.6307 -21.46808,11.82716c-3.99043,3.82564 -7.25709,7.43775 -7.25709,8.02846c0,0.6885 5.84983,1.07266 16.32625,1.07266l16.32625,0l4.00445,-4.05714c5.55892,-5.6307 6.97318,-4.02421 1.58951,1.80705c-3.90456,4.22976 -4.29537,5.63769 -3.60313,12.97665c0.44163,4.66581 1.55622,8.23202 2.57266,8.23202c0.98841,0 7.21327,-1.66636 13.8342,-3.70191l12.03965,-3.70291l0,-10.14085c0,-9.08116 0.47843,-10.62978 4.58278,-14.80965c5.54314,-5.64866 7.6549,-5.40918 2.54988,0.28837c-2.99852,3.34569 -3.62767,5.89812 -3.62767,14.70488c0,10.13287 0.26287,10.89819 5.34687,15.60292c2.94069,2.72106 5.08049,5.4002 4.75803,5.953c-0.32421,0.55279 -3.0914,-1.28719 -6.15126,-4.08907c-3.05811,-2.80188 -6.57887,-5.08888 -7.82489,-5.0829c-1.24427,0.00599 -8.17715,2.02158 -15.40619,4.47922c-7.22905,2.45763 -13.70802,4.47323 -14.39675,4.47922c-0.68873,0.00599 -1.5089,-4.59097 -1.82084,-10.21668l-0.56781,-10.22766l-0.36978,10.72657c-0.30669,8.87162 0.07536,10.72657 2.20814,10.72657c1.41777,0 8.58197,-2.02059 15.91792,-4.49019c7.33595,-2.46961 13.89379,-4.49019 14.572,-4.49019c0.67646,0 5.14708,3.80868 9.93139,8.46351c4.78431,4.65483 9.48801,8.4695 10.45189,8.47848c0.96387,0.00798 5.58871,-3.8007 10.27664,-8.46351c4.68793,-4.66281 9.33204,-8.47848 10.32045,-8.47848c0.99016,0 7.70397,2.02059 14.919,4.49019c7.21678,2.46961 14.20398,4.49019 15.52887,4.49019c1.91373,0 2.33082,-2.19421 2.0364,-10.72657l-0.36978,-10.72657l-0.56781,10.22766c-0.31194,5.62571 -1.13211,10.22267 -1.82084,10.21668c-0.68873,-0.00599 -7.16771,-2.02158 -14.39675,-4.47922c-7.22905,-2.45763 -14.14965,-4.47323 -15.37815,-4.47922c-1.23025,-0.00599 -5.36264,2.79589 -9.18483,6.2254c-8.74671,7.85085 -9.00783,6.61455 -0.49596,-2.35785l6.48599,-6.83707l-3.85724,-2.97051c-2.12227,-1.63343 -3.85724,-3.206 -3.85724,-3.49437c0,-0.28837 -2.36587,-2.71407 -5.25749,-5.39023c-4.53721,-4.19883 -5.25749,-5.82827 -5.25749,-11.90499c0,-7.29107 -2.24845,-9.46433 -6.51578,-6.29724c-1.90146,1.41092 -2.14155,1.41491 -2.19062,0.03792c-0.03154,-0.85014 0.89027,-2.08544 2.04692,-2.74401c4.34269,-2.4726 -3.66096,-1.19938 -13.86575,2.20618c-7.13441,2.3798 -11.47009,4.69075 -14.43005,7.6902c-2.32907,2.35885 -4.53546,3.77276 -4.90348,3.14413c-0.7378,-1.26025 3.47169,-5.47903 9.03412,-9.05522c2.95296,-1.89686 3.0546,-2.18523 0.58358,-1.64541c-1.64559,0.35922 -7.00998,4.64984 -11.91873,9.53417l-8.92546,8.8806l-14.93127,0l-14.93127,0l4.88946,-4.73965c2.69008,-2.60631 5.91818,-5.9071 7.17297,-7.33298c1.39849,-1.58853 8.05973,-4.4393 17.18322,-7.35493c8.19467,-2.61828 14.89972,-4.93123 14.89972,-5.13977c0,-0.90203 -3.4752,0.05488 -16.83973,4.63687m35.66329,-2.64622c-6.32301,2.21317 -11.07928,4.43731 -7.43234,3.47641c8.29456,-2.18822 14.89622,-4.43631 14.89622,-5.07392c0,-1.02775 0.08412,-1.04572 -7.46388,1.59751m30.24633,-1.71625c0,0.48494 4.63535,2.3329 10.29942,4.10603c9.85779,3.08526 11.1301,3.22396 29.68903,3.22396c10.66394,0 19.75764,-0.33726 20.20628,-0.74837c0.45039,-0.4111 -8.20519,-0.60867 -19.23189,-0.43804c-21.31035,0.33028 -20.04505,0.52186 -37.01973,-5.60276c-2.16959,-0.78229 -3.94312,-1.02576 -3.94312,-0.54082m71.39844,1.71625c-8.63805,3.0234 -10.20128,4.03918 -4.80359,3.11919l4.38124,-0.74637l-4.81936,2.19221c-2.64977,1.20537 -4.81936,2.92162 -4.81936,3.81567c0,1.26224 -0.46792,1.35704 -2.103,0.42607c-1.35468,-0.77132 -8.32085,-1.19738 -19.57012,-1.19738c-16.66799,0 -17.9771,-0.15965 -28.62527,-3.49237c-11.79255,-3.69094 -14.54396,-4.15093 -14.54396,-2.43568c0,0.58073 0.79739,0.7763 1.77177,0.43305c0.97439,-0.34225 6.40012,0.97786 12.05892,2.93459c10.04881,3.47641 10.70775,3.55823 28.52713,3.55823l18.24173,0l6.69103,7.05359l6.69103,7.05259l-17.55125,-0.31731c-9.65275,-0.17562 -17.18322,0.01896 -16.73458,0.43006c0.45039,0.4111 8.65733,0.74837 18.23998,0.74837c18.68862,0 20.01701,-0.43904 14.61406,-4.83145c-1.54395,-1.25526 -2.42896,-2.49854 -1.96455,-2.76197c0.8044,-0.458 10.02953,7.83588 10.02953,9.0183c0,0.31431 -7.6882,0.66355 -17.08684,0.7783l-17.08684,0.20655l16.51727,0.33128c9.08494,0.1826 17.56176,0.10377 18.83933,-0.17562c1.67363,-0.3652 -0.12443,-2.86774 -6.44042,-8.95444c-4.81936,-4.64585 -8.76248,-8.91453 -8.76248,-9.48528c0,-0.57075 5.10327,-2.70908 11.3404,-4.75162c6.23538,-2.04154 11.06701,-3.86755 10.73579,-4.05714c-0.33297,-0.18859 -3.49798,0.62863 -7.03452,1.81603c-3.53478,1.1884 -6.86277,1.91282 -7.39378,1.61148c-0.52925,-0.30234 1.4756,-1.26723 4.4566,-2.14531c5.18914,-1.52766 6.90659,-2.57737 4.1061,-2.51151c-0.72203,0.01696 -4.2796,1.06966 -7.902,2.33789m-164.28073,1.0537c0,0.2744 1.57725,0.97886 3.50499,1.56658c1.92775,0.58772 3.50499,0.84316 3.50499,0.56876c0,-0.2744 -1.57725,-0.97886 -3.50499,-1.56658c-1.92775,-0.58772 -3.50499,-0.84316 -3.50499,-0.56876m63.9661,2.72704c-10.19777,3.01242 -12.22716,4.26169 -21.4488,13.20515c-8.31384,8.06538 -8.33312,8.10529 -7.75129,16.0679c0.32246,4.39041 0.85171,8.13623 1.17768,8.32282c0.32772,0.18759 5.77973,-1.31014 12.11676,-3.32873l11.52441,-3.66899l0,-10.04606c0,-9.65291 0.2436,-10.29351 6.21961,-16.37822c3.42087,-3.48239 5.98302,-6.31221 5.69561,-6.28826c-0.28741,0.02495 -3.67849,0.97587 -7.53398,2.11438m19.55435,-0.48694c-0.6344,0.36121 -1.15314,3.47341 -1.15314,6.9149c0,5.81131 0.69574,6.92388 9.7211,15.55003c5.34687,5.10984 11.45782,9.78762 13.58184,10.39529c2.12403,0.60767 7.80386,2.31295 12.62323,3.78972c9.50904,2.91364 7.63738,2.06449 -7.66191,-3.4784c-8.36291,-3.03038 -11.12835,-4.86338 -18.1874,-12.05966c-7.1975,-7.33697 -8.32436,-9.25179 -8.32436,-14.13812c0,-3.10821 0.59234,-5.65165 1.31437,-5.65066c0.72203,0.001 3.43664,2.1513 6.02859,4.78056c5.66056,5.73846 8.05097,7.00071 21.1351,11.16262c13.90255,4.42234 12.72838,3.08825 -1.43354,-1.62844c-9.02711,-3.00643 -12.62323,-4.94021 -16.66098,-8.95843c-5.55716,-5.53092 -9.15679,-7.71914 -10.98289,-6.67941m-73.35598,1.52168c1.63508,0.93097 2.57091,0.93097 4.20599,0c1.63508,-0.93097 1.16891,-1.19738 -2.103,-1.19738c-3.27191,0 -3.73807,0.26642 -2.103,1.19738m82.23412,0.5488c2.61823,3.94139 8.12282,8.34677 11.63657,9.31066c3.20006,0.87808 3.34376,0.83817 0.98666,-0.2754c-1.51766,-0.71644 -4.94379,-3.4355 -7.6146,-6.0418c-4.97008,-4.84841 -7.07483,-6.10766 -5.00863,-2.99346m-20.98439,4.13896c-4.38299,4.44329 -4.81936,5.80931 -4.81936,15.07407c0,9.88541 0.19453,10.3903 6.57186,17.05774c3.6154,3.77974 7.36048,6.86999 8.32436,6.869c0.96387,-0.001 4.71421,-2.96752 8.33312,-6.5916l6.57887,-6.58961l-8.76949,-8.6531c-8.14735,-8.03645 -8.77124,-9.12906 -8.77124,-15.35346c0,-3.68495 -0.59234,-6.70036 -1.31437,-6.69937c-0.72203,0.001 -3.48396,2.1992 -6.13374,4.88633m82.86152,1.15847c0.02979,0.79027 1.21273,2.30995 2.62874,3.37463c1.81383,1.36502 2.55689,1.5127 2.51658,0.49891c-0.02979,-0.79027 -1.21273,-2.30995 -2.62874,-3.37463c-1.81383,-1.36502 -2.55689,-1.5127 -2.51658,-0.49891m-45.62098,5.41218c0,0.26542 3.94312,1.61946 8.76248,3.01042c10.84795,3.13016 11.45256,2.58435 1.00243,-0.90303c-7.74077,-2.58236 -9.76491,-3.0194 -9.76491,-2.1074m18.15936,9.30368c2.71286,1.7412 3.15099,3.34469 2.60246,9.53816c-0.36452,4.09505 -0.05783,7.2332 0.67997,6.97377c0.7378,-0.25943 1.34066,-4.02221 1.34066,-8.36074c0,-7.16635 -0.36101,-7.99653 -3.94312,-9.0662c-3.89755,-1.16446 -3.90456,-1.15348 -0.67997,0.915m107.72242,12.41588c-13.3435,6.11963 -30.94032,32.34535 -39.00005,58.12304c-1.5457,4.93921 -3.54179,11.22548 -4.43907,13.96949c-2.48504,7.60638 -4.0728,22.89299 -2.73915,26.35343c3.39283,8.79479 12.19562,-1.43187 23.95837,-27.8322c2.8075,-6.30024 5.66932,-11.74634 6.36331,-12.10057c1.16716,-0.59769 27.30564,0.95691 49.26967,2.9296c8.93422,0.80325 14.17594,2.86873 14.218,5.60176c0.03154,2.08445 15.63226,22.77425 18.56419,24.61723c3.53128,2.22215 5.90416,2.35585 10.18551,0.57375c3.01429,-1.25526 2.9845,-1.64341 -0.7045,-9.22984c-7.56553,-15.564 -18.63078,-33.9209 -26.5398,-44.03581c-1.79981,-2.30197 -3.27366,-4.49019 -3.27366,-4.86038c0,-0.37119 -4.90173,-6.34514 -10.89176,-13.276c-7.73552,-8.95045 -13.29619,-13.97447 -19.19334,-17.34112c-8.70815,-4.97114 -11.30185,-5.54489 -15.77772,-3.49237m-83.25057,17.01084c0.60812,5.65066 2.32731,13.84576 3.82044,18.21022c1.49313,4.36347 3.21057,13.88467 3.81343,21.15579c0.94284,11.36118 0.72904,13.22112 -1.52993,13.22112c-4.98235,0 -23.37304,-7.6433 -41.11531,-17.08867c-22.04465,-11.73437 -35.0727,-15.93918 -51.45328,-16.60672l-11.72069,-0.47696l-2.01537,4.55605c-2.41844,5.46905 -2.64627,20.11307 -0.40307,25.93136c0.88852,2.30097 3.36304,9.57209 5.49933,16.15771c2.13629,6.58561 4.56525,12.72919 5.39418,13.65218c2.06269,2.29299 7.64789,3.14912 11.96254,1.83399c4.85091,-1.47777 4.67215,-6.77819 -0.82543,-24.46656c-4.96833,-15.98408 -5.69561,-25.44442 -1.95754,-25.44442c10.34498,0 28.87062,6.81212 47.26657,17.38103c23.64643,13.58433 39.25591,19.00548 52.8693,18.36189c5.81128,-0.2754 6.96091,-0.73839 8.22797,-3.31376c3.02831,-6.15555 -1.37396,-24.71302 -14.395,-60.69342c-0.95862,-2.64921 -1.74198,-6.03881 -1.74198,-7.53354c0,-3.37064 -2.89688,-5.11283 -8.50311,-5.11283l-4.29712,0l1.10407,10.27555m-75.91637,-6.68839c0.00526,0.49691 1.50364,2.19221 3.32799,3.76877c3.22985,2.78791 3.37005,2.80986 5.24697,0.81322c2.50607,-2.66717 2.43597,-3.45146 -0.26287,-2.89468c-1.20396,0.24846 -3.56983,-0.23249 -5.25749,-1.06867c-1.68765,-0.83717 -3.06161,-1.11556 -3.0546,-0.61865m163.17315,5.64267c-3.93961,5.26151 -10.07159,16.94 -11.55596,22.01391c-1.40024,4.77956 1.39499,9.7507 6.5298,11.61463c2.40793,0.87409 10.26437,1.59751 20.15721,1.85694l16.21059,0.42507l0,-3.06431c0,-6.42896 -12.44798,-25.73279 -22.46875,-34.84189c-3.52602,-3.206 -5.26976,-2.81286 -8.87289,1.99564m-221.20004,2.69412l-5.16811,2.94257l0.20504,13.06047c0.1402,8.92351 -0.46967,13.52246 -1.92074,14.51928c-1.73672,1.1914 -8.64506,1.45782 -37.77505,1.45782c-33.4534,0 -35.76143,-0.11874 -37.46486,-1.92978c-0.99717,-1.06168 -1.87342,-6.78717 -1.94702,-12.72221c-0.19277,-15.6548 -4.47587,-20.86742 -13.61689,-16.5718c-4.70195,2.21017 -5.05069,6.29525 -2.18887,25.73578c3.29469,22.37512 7.28162,39.53763 10.40632,44.80114c3.48221,5.86319 11.4438,10.80939 16.71355,10.38132c3.10367,-0.25245 3.80292,-1.08962 4.25331,-5.08689c0.29442,-2.63125 -0.67296,-8.24399 -2.15031,-12.47275c-1.47735,-4.22876 -2.90213,-10.60683 -3.16501,-14.17404l-0.48018,-6.48583l35.04992,0l35.04992,0l1.1584,7.98256c1.62106,11.15962 4.15867,17.60155 9.44595,23.96465c5.26099,6.33117 9.70182,8.27093 13.29443,5.80532c1.72095,-1.18142 2.23969,-4.50815 1.91723,-12.3141c-0.40658,-9.8864 -1.13562,-13.99742 -5.66231,-31.92426c-0.90078,-3.56721 -1.66312,-13.46858 -1.69466,-22.00194c-0.05783,-15.60791 -0.91656,-17.91088 -6.67701,-17.91088c-1.32664,0 -4.73875,1.32411 -7.58305,2.94357m-222.21649,5.95699c-2.02413,0.72941 -2.28525,3.96833 -1.46859,18.19426c1.62807,28.384 9.304,46.24598 23.29593,54.21258c5.06471,2.8837 7.45337,3.50734 13.42587,3.50734c7.78459,0 7.85644,-0.01098 37.90123,-5.47604c33.89853,-6.16553 45.91014,-10.33143 40.49668,-14.04532c-2.36587,-1.62345 -14.85766,-1.88089 -24.44206,-0.5039c-3.37355,0.48394 -13.97966,2.74001 -23.56932,5.01105c-13.46267,3.19003 -19.25292,4.06412 -25.41119,3.83562c-7.91953,-0.29436 -8.01416,-0.34125 -13.50123,-6.68939c-8.85887,-10.24861 -12.85806,-22.02888 -15.78123,-46.49144c-1.4055,-11.75732 -3.69251,-14.17005 -10.94609,-11.55476m215.85143,83.61535c2.66379,0.2285 6.60691,0.22251 8.76248,-0.01397c2.15557,-0.23648 -0.02453,-0.42407 -4.8439,-0.41709c-4.81936,0.00798 -6.58237,0.20156 -3.91858,0.43106m15.76545,0.43804c1.01995,0.36121 2.83203,0.44303 4.02724,0.1816c1.1952,-0.26043 2.69359,0.00499 3.32974,0.59171c1.67188,1.54063 25.0975,1.28719 33.37103,-0.36121c6.56835,-1.30914 5.44851,-1.38697 -17.78608,-1.23231c-13.63792,0.0908 -23.96188,0.46 -22.94193,0.82021m61.78074,-0.4131c-6.61392,0.38316 -10.33797,1.82002 -8.67836,3.34769c0.41184,0.38117 3.71179,0.31232 7.33069,-0.15267c3.6189,-0.46498 7.23781,-0.46997 8.0422,-0.01197c2.05918,1.17244 8.1789,0.09479 8.1789,-1.43985c0,-1.21335 -4.23053,-2.67316 -6.71556,-2.31694c-0.64317,0.0928 -4.31465,0.35023 -8.15787,0.57375m-130.89918,0.76932c-1.18469,0.67353 -34.55747,2.41971 -49.20658,2.57438c-8.44177,0.08881 -17.90525,0.52286 -21.02995,0.96489c-7.11338,1.0058 25.74942,0.26442 52.15078,-1.17643c10.6026,-0.57874 29.92387,-1.40493 42.93615,-1.83399l23.6587,-0.78229l-23.97415,-0.03293c-13.18578,-0.01896 -24.2265,0.10976 -24.53494,0.28637m137.88638,0.48494c-0.59585,0.5488 -0.2471,0.99782 0.77285,0.99782c1.01995,0 1.85589,-0.44902 1.85589,-0.99782c0,-0.5488 -0.34699,-0.99782 -0.77285,-0.99782c-0.42586,0 -1.26004,0.44902 -1.85589,0.99782m-64.91946,1.9238c1.46684,1.35205 -3.25964,1.9208 -20.95284,2.52149c-31.99707,1.08663 -43.64416,1.67334 -45.38439,2.28501c-0.97965,0.34525 -5.52387,0.72741 -10.09788,0.84915c-4.57401,0.12273 -10.10664,0.93695 -12.29376,1.81005c-2.23794,0.89205 -7.83891,1.63044 -12.79147,1.68632c-4.84565,0.05488 -10.78136,0.48295 -13.19104,0.95192c-4.88596,0.94992 17.08859,0.26841 24.53494,-0.76233c6.66124,-0.92099 7.34121,-0.97188 15.20991,-1.13552c4.02724,-0.08282 8.50486,-0.8252 9.95067,-1.6484c1.5422,-0.87808 5.39769,-1.43487 9.32678,-1.34706c5.28027,0.11774 5.67633,0.23748 1.87692,0.56477c-6.96968,0.60169 -5.92519,2.27902 1.41777,2.27902c3.42963,0 5.80602,-0.39813 5.27677,-0.88407c-1.17242,-1.08164 5.92519,-2.25707 8.3892,-1.38996c0.9814,0.34525 0.25937,0.9599 -1.61755,1.37799c-2.8443,0.63461 -2.61472,0.76732 1.43004,0.8262c5.18388,0.07484 6.07065,-0.81422 2.71637,-2.72405c-2.50081,-1.42389 -1.52467,-1.4638 43.28665,-1.77911c39.32251,-0.27739 37.81886,-0.1826 31.86563,-2.01959c-3.61715,-1.11656 -5.55015,-1.23331 -7.2343,-0.43705c-1.60353,0.75735 -3.7223,0.7773 -7.00823,0.06586c-3.15274,-0.68251 -5.792,-0.68949 -7.98437,-0.02095c-4.79483,1.46081 -10.47642,1.21734 -11.63307,-0.49891c-0.55554,-0.8232 -2.15382,-1.49673 -3.55406,-1.49673c-1.40024,0 -2.09248,0.41709 -1.53869,0.92598m95.58814,-0.21852c2.40968,0.25145 5.69211,1.12654 7.29389,1.94575c3.32098,1.69729 12.23943,1.44684 13.28918,-0.37318c0.44513,-0.77331 -1.09356,-1.17643 -4.2463,-1.11157c-2.71987,0.05588 -8.49435,-0.12772 -12.83178,-0.40911c-4.33743,-0.28039 -5.91467,-0.30434 -3.50499,-0.05189m-271.63688,3.81367c-9.85078,0.92398 -11.38772,1.25127 -6.13374,1.30615c3.85549,0.03991 11.74172,-0.53583 17.52496,-1.27821c13.00527,-1.67135 6.30198,-1.68731 -11.39122,-0.02794m297.04807,0.46798c0.59585,0.5488 2.61297,0.99782 4.48464,0.99782c1.87167,0 3.40159,-0.44902 3.40159,-0.99782c0,-0.5488 -2.01888,-0.99782 -4.48464,-0.99782c-2.54287,0 -4.01672,0.43206 -3.40159,0.99782m-322.02114,1.70228c2.16959,0.23748 5.71664,0.23748 7.88623,0c2.16959,-0.23848 0.39431,-0.43305 -3.94312,-0.43305c-4.33743,0 -6.11271,0.19457 -3.94312,0.43305m214.71406,-0.01297c1.70518,0.25345 4.07105,0.23648 5.25749,-0.03692c1.18644,-0.2734 -0.20855,-0.47995 -3.10017,-0.46c-2.89162,0.01996 -3.8625,0.24347 -2.15732,0.49691m-250.24066,1.15947c-6.146,3.49936 15.22218,13.28498 28.42023,13.01657c4.32691,-0.08881 4.12538,-0.20655 -1.68415,-0.98585c-3.62942,-0.48694 -9.72811,-1.79508 -13.55556,-2.90565c-12.02212,-3.49237 -16.07039,-9.76766 -5.52737,-8.56729c2.55864,0.29037 8.9903,0.14868 14.2916,-0.31631c9.17081,-0.80424 8.89392,-0.84216 -5.73417,-0.78229c-8.45579,0.03592 -15.74968,0.27839 -16.21059,0.54082m95.19909,6.16952c-7.42182,1.03973 -19.25117,2.35785 -26.28744,2.9306c-25.50758,2.07746 -31.16639,2.67017 -32.45097,3.40157c-1.70693,0.97088 17.00797,-0.38815 20.85645,-1.51469c1.62456,-0.47496 6.3563,-0.8691 10.51498,-0.87609c4.16043,-0.00599 13.87276,-0.89904 21.58374,-1.98367c7.71098,-1.08463 15.99153,-1.98466 18.40121,-1.99963c2.40968,-0.01397 5.56417,-0.46199 7.00998,-0.99383c4.24455,-1.56159 -4.28836,-1.11157 -19.62796,1.03574"/>
  <path stroke="null" id="svg_2" fill-rule="evenodd" fill="#000000" d="m383.35033,9.52494c-4.50936,4.42541 -9.24498,8.2749 -10.5236,8.55386c-2.10998,0.46194 -10.57096,-1.85475 -24.71994,-6.7671c-2.89399,-1.00387 -5.82657,-1.82776 -6.51586,-1.82976c-0.6893,-0.002 -1.47857,4.60739 -1.75393,10.24463l-0.49987,10.24863l-17.97782,0.28496c-17.28326,0.27396 -19.77034,0.69191 -16.46242,2.76463c3.75517,2.35269 14.42961,14.76803 13.67016,15.89788c-0.46655,0.69091 -7.22971,3.39055 -15.03121,5.9982c-7.80325,2.60665 -14.18582,4.88035 -14.18582,5.05033c0,0.16998 6.38256,2.44367 14.18582,5.05033c7.8015,2.60765 14.56993,5.31329 15.03998,6.0132c0.76998,1.14285 -6.69301,9.82169 -12.81775,14.90601c-1.30668,1.08386 -2.37658,2.32169 -2.37658,2.74963c0,0.42694 7.03854,0.7769 15.64158,0.7769c8.60304,0 16.89038,0.27296 18.4163,0.60692c2.27134,0.49693 2.77472,2.40068 2.77472,10.4986c0,5.44027 0.59283,9.88668 1.31545,9.88068c0.72262,-0.006 7.23498,-2.02573 14.46995,-4.4884c7.23498,-2.46267 14.15074,-4.4824 15.36797,-4.4884c1.98019,-0.01 5.38282,2.69764 17.32711,13.79016l3.55698,3.30156l8.25401,-8.09792c4.54093,-4.45441 9.39582,-8.34889 10.79195,-8.65385c1.39613,-0.30596 8.73459,1.5148 16.30807,4.04646c7.57173,2.53066 14.29105,4.60139 14.92948,4.60139c0.63843,0 1.1611,-4.45141 1.1611,-9.89168c0,-8.09792 0.50338,-10.00167 2.77472,-10.4986c1.52592,-0.33396 9.81326,-0.60692 18.4163,-0.60692c8.60304,0 15.64158,-0.28796 15.64158,-0.63891c0,-0.35195 -2.18716,-2.71464 -4.8584,-5.2493c-10.48151,-9.94467 -11.76889,-11.82642 -9.26779,-13.54419c1.2716,-0.87388 6.94382,-2.9956 12.60377,-4.71537c14.14197,-4.29743 13.92623,-6.22017 -1.26108,-11.28549c-6.3545,-2.11872 -11.93903,-4.42541 -12.41083,-5.12532c-0.76998,-1.14385 6.69301,-9.82069 12.81775,-14.90701c1.30668,-1.08386 2.37658,-2.30569 2.37658,-2.71464c0,-0.40795 -8.0909,-0.86988 -17.97782,-1.02686l-17.97782,-0.28496l-0.49987,-10.24863c-0.27537,-5.63725 -1.06464,-10.24663 -1.75393,-10.24463c-0.6893,0.002 -3.62187,0.82589 -6.51586,1.82976c-14.14898,4.91234 -22.60996,7.22904 -24.71994,6.7671c-1.27862,-0.27896 -6.01424,-4.12845 -10.5236,-8.55386c-4.51112,-4.42541 -8.38205,-8.04593 -8.6048,-8.04593c-0.22275,0 -4.09368,3.62052 -8.6048,8.04593m3.06061,-0.85889c-1.71535,1.82176 -4.09368,4.21144 -5.28811,5.31129c-5.16183,4.75337 -6.14929,6.95307 -4.00774,8.91981c1.14883,1.05686 4.0779,3.98147 6.50709,6.49913c2.4292,2.51866 5.29863,5.20731 6.37555,5.9762c1.07692,0.7689 2.35203,4.93834 2.83436,9.26476c0.48233,4.32642 1.66624,7.96194 2.6309,8.07892c0.96466,0.11698 4.31994,-2.02173 7.45422,-4.75337c5.57225,-4.85535 5.70028,-5.2163 5.70028,-16.16084c0,-11.72244 -0.42094,-12.7343 -8.65917,-20.82422c-6.23699,-6.12518 -9.44318,-6.67311 -13.54738,-2.31169m-43.27305,4.4784c-1.58906,0.90588 -1.43998,15.56792 0.17189,16.88075c1.36281,1.11085 19.04246,7.44901 20.7771,7.44901c3.60083,0 11.88992,4.95434 16.79041,10.03666c3.1676,3.28456 6.56147,5.82122 7.54191,5.63625c0.98045,-0.18398 2.01176,-3.49553 2.29239,-7.35902c0.49987,-6.89608 0.34202,-7.18504 -8.65391,-15.7659c-5.03905,-4.80736 -10.79371,-9.29076 -12.78793,-9.96467c-1.99247,-0.67291 -7.81904,-2.65365 -12.94754,-4.40141c-9.74486,-3.32156 -11.2585,-3.60952 -13.18432,-2.51166m82.14197,3.28856l-12.27754,3.88448l-0.49812,10.60259c-0.39288,8.35389 -1.21898,11.28649 -3.89549,13.82815c-4.84612,4.60139 -8.94155,9.95367 -8.01898,10.4796c0.43322,0.24697 5.62662,-1.05886 11.54088,-2.90261c9.19938,-2.86862 11.8145,-4.36342 18.10761,-10.35162c11.86887,-11.29449 11.90044,-11.35348 11.34269,-20.43327c-0.28414,-4.62138 -1.30493,-8.53486 -2.26959,-8.69684c-0.96466,-0.16198 -7.27882,1.45281 -14.03147,3.58952m-115.85959,16.32882c-0.54723,0.81389 1.55399,3.89448 4.66897,6.84609c9.66242,9.15378 8.73985,8.86482 28.30498,8.86482c16.75357,0 17.85329,0.13798 28.7575,3.61452c6.23699,1.98773 11.74434,3.38255 12.24246,3.09859c1.0471,-0.59592 -7.50333,-10.53059 -10.48326,-12.17937c-1.10147,-0.60992 -8.31715,-3.31656 -16.03446,-6.0142c-13.69998,-4.78836 -14.41383,-4.91434 -30.24483,-5.30729c-13.15801,-0.32696 -16.40279,-0.12398 -17.21135,1.07686m135.38088,-0.41195c-1.80304,0.40395 -5.37756,2.95961 -7.94181,5.67924c-8.76265,9.29176 -13.30709,12.32835 -23.39923,15.63991c-5.53717,1.81676 -10.07459,3.63951 -10.08512,4.05246c-0.01052,0.41294 6.59304,0.7499 14.67516,0.7499c10.91999,0 15.25396,-0.38495 16.87635,-1.4998c1.20144,-0.82489 2.83436,-1.4998 3.62889,-1.4998c0.79453,0 6.11947,-1.56179 11.83204,-3.47054c8.56797,-2.86262 11.6584,-4.68937 17.63405,-10.42361c8.05231,-7.72797 8.47325,-8.61985 4.47078,-9.49573c-3.792,-0.82989 -23.64829,-0.63692 -27.6911,0.26796m-126.36215,18.87248c-0.72087,0.41294 -5.78447,2.16171 -11.25324,3.88648c-5.46877,1.72477 -10.17106,3.7815 -10.44994,4.57039c-0.2894,0.81789 2.35203,2.2647 6.13877,3.36355c3.6552,1.05986 9.55192,2.92661 13.10539,4.14745l6.45798,2.2197l14.58922,-4.56839c8.02249,-2.51266 15.33815,-4.97334 16.2537,-5.46927c0.91555,-0.49493 7.42791,-0.90088 14.46995,-0.90088c7.04204,0 12.78793,-0.33696 12.76864,-0.7499c-0.01929,-0.41294 -4.42167,-2.2117 -9.7852,-3.99947c-9.50281,-3.16658 -10.27981,-3.24957 -30.36761,-3.24957c-11.33918,0 -21.20506,0.33696 -21.92768,0.7499m134.02684,1.85775c-22.35564,7.31702 -22.69239,7.39101 -33.82461,7.40601c-9.79747,0.014 -17.41831,1.16784 -15.23467,2.30669c0.45427,0.23697 5.23023,1.83675 10.61481,3.55453c9.25375,2.95161 10.80774,3.12258 28.46108,3.12258c17.36745,0 19.34589,-0.20697 28.28218,-2.9636c14.13144,-4.35842 16.77988,-5.39928 16.77988,-6.59712c0,-0.90388 -23.97627,-9.46174 -26.40196,-9.42474c-0.43147,0.007 -4.33572,1.17484 -8.67671,2.59565m-94.42828,8.12092c-3.21847,0.22497 -12.38277,2.60765 -20.36142,5.29529c-13.07382,4.40141 -15.22941,5.57526 -21.77158,11.85342c-3.99371,3.83249 -7.26129,7.45101 -7.26129,8.04293c0,0.68891 5.82657,1.07486 16.23967,1.07486c18.12164,0 15.88012,0.82489 25.80036,-9.49873c7.65241,-7.96294 9.74486,-9.20477 20.62451,-12.24137c5.08641,-1.41981 9.24674,-2.90561 9.24674,-3.30256c0,-1.66278 -9.1415,-2.16071 -22.517,-1.22384m12.46521,6.59712c-10.37627,3.58852 -11.37426,4.28543 -21.01212,14.67004c-6.8,7.32802 -6.94207,7.68697 -6.17911,15.7479c0.44375,4.67438 1.561,8.2489 2.57828,8.2489c0.98922,0 7.21919,-1.66978 13.84555,-3.70951l12.04952,-3.7105l0,-10.58759c0,-5.82422 0.68228,-11.01653 1.51891,-11.53846c0.83487,-0.52293 3.96389,-3.53753 6.9561,-6.69911c6.52463,-6.89808 4.57777,-7.38102 -9.75713,-2.42168m29.34506,-2.76463c0,1.15685 9.44669,11.51046 11.26376,12.34535c1.04008,0.47794 8.49781,2.94261 16.57467,5.47827c14.51555,4.55739 14.86985,4.61038 31.13232,4.61038c10.53237,0 16.44839,-0.38595 16.44839,-1.07186c0,-0.58892 -2.17137,-3.16758 -4.82332,-5.72924c-2.65195,-2.56066 -5.63363,-5.56526 -6.62285,-6.67711c-1.59433,-1.78976 -3.98494,-2.07672 -21.0472,-2.51966c-17.6586,-0.45894 -20.07728,-0.7679 -29.30648,-3.7495c-9.64137,-3.11458 -13.61929,-3.89948 -13.61929,-2.68664m-19.11437,7.39601c-5.11447,5.47027 -5.4407,6.46414 -5.4407,16.56679c0,10.19264 0.27186,11.00053 5.2618,15.62292c2.89399,2.68164 5.2618,5.2493 5.2618,5.70524c0,1.4968 6.1756,4.05446 8.06108,3.33855c1.01377,-0.38395 4.904,-3.95347 8.64338,-7.93094l6.80175,-7.23104l-3.86041,-2.9766c-2.12401,-1.63678 -3.86041,-3.21257 -3.86041,-3.50153c0,-0.28896 -2.36781,-2.71964 -5.2618,-5.40128c-4.53743,-4.20344 -5.2618,-5.84322 -5.2618,-11.90641c0,-9.43674 -3.03255,-10.10665 -10.3447,-2.28569m13.25272,-5.28429c-0.63492,0.36195 -1.15409,3.48054 -1.15409,6.92908c0,5.82322 0.69631,6.93807 9.72907,15.58192c5.35125,5.12032 11.46722,9.80769 13.59299,10.41661c2.12577,0.60892 7.63137,2.33969 12.23544,3.84749c12.0162,3.93447 13.55265,3.21857 13.55265,-6.31316l0,-7.92194l-15.89941,-5.35828c-13.44916,-4.5324 -16.69569,-6.14918 -21.05948,-10.4906c-5.57049,-5.54226 -9.16957,-7.73197 -10.99716,-6.69111m-100.98448,144.35074c-12.94403,0.42794 -32.67578,1.26283 -43.84834,1.85475c-11.17256,0.59192 -28.20676,1.32882 -37.8534,1.63878c-19.07052,0.61092 -30.03436,1.24883 -34.30343,1.99573c-5.98442,1.04686 -62.66454,4.33342 -66.04613,3.82949c-1.98721,-0.29696 -4.16559,-0.03 -4.8391,0.59192c-2.20119,2.02973 4.43921,6.17918 13.79644,8.62185c10.29734,2.68764 16.87284,3.0036 30.88151,1.4848c5.30565,-0.57492 15.56616,-1.5198 22.80114,-2.09972c7.23498,-0.57892 15.91695,-1.4698 19.29327,-1.97974c14.01393,-2.11272 41.70328,-4.96634 48.28053,-4.97534c3.88672,-0.005 8.85736,-0.7249 11.04803,-1.59879c2.18891,-0.87488 7.72608,-1.69077 12.30384,-1.81376c4.57777,-0.12198 9.12572,-0.50493 10.10617,-0.85089c1.74166,-0.61292 13.3983,-1.20084 45.42162,-2.28969c17.70771,-0.60192 22.43807,-1.17184 20.97003,-2.52666c-0.55424,-0.50993 0.27011,-0.92788 1.83111,-0.92788c1.561,0 2.41517,-0.38995 1.89776,-0.86788c-1.16637,-1.07486 -20.84901,-1.10785 -51.74104,-0.08699m112.9849,-0.04499c-0.59634,0.54993 -0.2473,0.99987 0.77348,0.99987c1.02079,0 1.85742,-0.44994 1.85742,-0.99987c0,-0.54993 -0.34728,-0.99987 -0.77348,-0.99987c-0.42621,0 -1.26108,0.44994 -1.85742,0.99987m-110.38206,7.89695c-1.87846,0.41894 -2.60108,1.03486 -1.61888,1.38082c2.46603,0.86888 9.56946,-0.30896 8.39608,-1.39281c-1.11375,-1.02686 -2.13103,-1.02486 -6.7772,0.012"/>
 </g>
</svg>